MoBL_ARMS_Upper_Limb_Model_OpenSim_states
version=1
nRows=10
nColumns=55
inDegrees=yes

# SIMM Motion File Header:
name MoBL_ARMS_Upper_Limb_Model_OpenSim_states
datacolumns 55
datarows 10
otherdata 1
range 0.72947914 0.74916009
endheader
time	sternoclavicular_r2	sternoclavicular_r3	unrotscap_r3	unrotscap_r2	acromioclavicular_r2	acromioclavicular_r3	acromioclavicular_r1	unrothum_r1	unrothum_r3	unrothum_r2	elv_angle	shoulder_elv	shoulder1_r2	shoulder_rot	elbow_flexion	pro_sup	deviation	flexion	wrist_hand_r1	wrist_hand_r3	sternoclavicular_r2_u	sternoclavicular_r3_u	unrotscap_r3_u	unrotscap_r2_u	acromioclavicular_r2_u	acromioclavicular_r3_u	acromioclavicular_r1_u	unrothum_r1_u	unrothum_r3_u	unrothum_r2_u	elv_angle_u	shoulder_elv_u	shoulder1_r2_u	shoulder_rot_u	elbow_flexion_u	pro_sup_u	deviation_u	flexion_u	wrist_hand_r1_u	wrist_hand_r3_u	SUP.activation	SUP.fiber_length	ECRL.activation	ECRL.fiber_length	ECRB.activation	ECRB.fiber_length	ECU.activation	ECU.fiber_length	FCR.activation	FCR.fiber_length	FCU.activation	FCU.fiber_length	PQ.activation	PQ.fiber_length
      0.72947914	     -4.84001085	      2.05000016	     -2.05000016	      4.84001085	     -0.98000374	      7.92004553	      3.56000596	     -3.56000596	     -7.92004553	      0.98000374	    -50.00000000	     20.00000000	     50.00000000	     20.00000000	     90.00021046	     56.44016826	      0.00000000	     32.55894863	     -0.00000000	     16.27947431	     -0.00000000	      0.00000000	      0.00000000	     -0.00000000	     -0.00000000	     -0.00000000	     -0.00000000	      0.00000000	      0.00000000	     -0.00000000	     -0.00000000	      0.00000000	      0.00000000	      0.00000000	      0.00000000	      1.40463903	      0.00000000	      5.64780189	     -0.00000000	      2.82390095	      0.01001955	      0.04011583	      0.01001955	      0.07066206	      0.01001955	      0.06805431	      0.01001955	      0.07362947	      0.01001955	      0.04237004	      0.01001955	      0.02750943	      0.01001955	      0.01961342
      0.73166591	     -4.84001085	      2.05000016	     -2.05000016	      4.84001085	     -0.98000374	      7.92004553	      3.56000596	     -3.56000596	     -7.92004553	      0.98000374	    -50.00000000	     20.00000000	     50.00000000	     20.00000000	     90.00021046	     56.44323962	      0.00000000	     32.57124182	     -0.00000000	     16.28562091	     -0.00000000	      0.00000000	      0.00000000	     -0.00000000	     -0.00000000	     -0.00000000	     -0.00000000	      0.00000000	      0.00000000	      0.00000000	     -0.00000000	      0.00000000	      0.00000000	      0.00000000	      0.00000000	      1.40297130	      0.00000000	      5.59573442	     -0.00000000	      2.79786721	      0.01001911	      0.04011616	      0.01001911	      0.07066435	      0.01001911	      0.06805672	      0.01001911	      0.07363055	      0.01001911	      0.04236667	      0.01001911	      0.02750623	      0.01001911	      0.01961306
      0.73385269	     -4.84001085	      2.05000016	     -2.05000016	      4.84001085	     -0.98000374	      7.92004553	      3.56000596	     -3.56000596	     -7.92004553	      0.98000374	    -50.00000000	     20.00000000	     50.00000000	     20.00000000	     90.00021046	     56.44630944	      0.00000000	     32.58342140	     -0.00000000	     16.29171070	     -0.00000000	      0.00000000	      0.00000000	     -0.00000000	     -0.00000000	     -0.00000000	     -0.00000000	      0.00000000	      0.00000000	      0.00000000	     -0.00000000	      0.00000000	      0.00000000	      0.00000000	      0.00000000	      1.40615708	      0.00000000	      5.54345682	     -0.00000000	      2.77172841	      0.01001869	      0.04011650	      0.01001869	      0.07066663	      0.01001869	      0.06805910	      0.01001869	      0.07363162	      0.01001869	      0.04236333	      0.01001869	      0.02750307	      0.01001869	      0.01961282
      0.73603946	     -4.84001085	      2.05000016	     -2.05000016	      4.84001085	     -0.98000374	      7.92004553	      3.56000596	     -3.56000596	     -7.92004553	      0.98000374	    -50.00000000	     20.00000000	     50.00000000	     20.00000000	     90.00021046	     56.44938387	      0.00000000	     32.59548761	     -0.00000000	     16.29774380	     -0.00000000	      0.00000000	      0.00000000	     -0.00000000	     -0.00000000	     -0.00000000	     -0.00000000	      0.00000000	      0.00000000	      0.00000000	     -0.00000000	      0.00000000	      0.00000000	      0.00000000	      0.00000000	      1.40425517	      0.00000000	      5.49247619	     -0.00000000	      2.74623810	      0.01001827	      0.04011683	      0.01001827	      0.07066888	      0.01001827	      0.06806145	      0.01001827	      0.07363268	      0.01001827	      0.04236003	      0.01001827	      0.02749994	      0.01001827	      0.01961245
      0.73822623	     -4.84001085	      2.05000016	     -2.05000016	      4.84001085	     -0.98000374	      7.92004553	      3.56000596	     -3.56000596	     -7.92004553	      0.98000374	    -50.00000000	     20.00000000	     50.00000000	     20.00000000	     90.00021046	     56.45245625	      0.00000000	     32.60744257	     -0.00000000	     16.30372128	     -0.00000000	      0.00000000	      0.00000000	     -0.00000000	     -0.00000000	     -0.00000000	     -0.00000000	      0.00000000	      0.00000000	      0.00000000	     -0.00000000	      0.00000000	      0.00000000	      0.00000000	      0.00000000	      1.40721615	      0.00000000	      5.44127116	     -0.00000000	      2.72063558	      0.01001786	      0.04011716	      0.01001786	      0.07067112	      0.01001786	      0.06806379	      0.01001786	      0.07363374	      0.01001786	      0.04235675	      0.01001786	      0.02749683	      0.01001786	      0.01961221
      0.74041300	     -4.84001085	      2.05000016	     -2.05000016	      4.84001085	     -0.98000374	      7.92004553	      3.56000596	     -3.56000596	     -7.92004553	      0.98000374	    -50.00000000	     20.00000000	     50.00000000	     20.00000000	     90.00021046	     56.45553275	      0.00000000	     32.61928647	     -0.00000000	     16.30964324	     -0.00000000	      0.00000000	      0.00000000	     -0.00000000	     -0.00000000	     -0.00000000	     -0.00000000	      0.00000000	      0.00000000	      0.00000000	     -0.00000000	      0.00000000	      0.00000000	      0.00000000	      0.00000000	      1.40508808	      0.00000000	      5.39134978	     -0.00000000	      2.69567489	      0.01001747	      0.04011749	      0.01001747	      0.07067333	      0.01001747	      0.06806611	      0.01001747	      0.07363478	      0.01001747	      0.04235351	      0.01001747	      0.02749376	      0.01001747	      0.01961185
      0.74259977	     -4.84001085	      2.05000016	     -2.05000016	      4.84001085	     -0.98000374	      7.92004553	      3.56000596	     -3.56000596	     -7.92004553	      0.98000374	    -50.00000000	     20.00000000	     50.00000000	     20.00000000	     90.00021046	     56.45860671	      0.00000000	     32.63102144	     -0.00000000	     16.31551072	     -0.00000000	      0.00000000	      0.00000000	     -0.00000000	     -0.00000000	     -0.00000000	     -0.00000000	      0.00000000	      0.00000000	      0.00000000	     -0.00000000	      0.00000000	      0.00000000	      0.00000000	      0.00000000	      1.40783061	      0.00000000	      5.34119071	     -0.00000000	      2.67059536	      0.01001708	      0.04011783	      0.01001708	      0.07067553	      0.01001708	      0.06806840	      0.01001708	      0.07363582	      0.01001708	      0.04235030	      0.01001708	      0.02749072	      0.01001708	      0.01961161
      0.74478655	     -4.84001085	      2.05000016	     -2.05000016	      4.84001085	     -0.98000374	      7.92004553	      3.56000596	     -3.56000596	     -7.92004553	      0.98000374	    -50.00000000	     20.00000000	     50.00000000	     20.00000000	     90.00021046	     56.46168431	      0.00000000	     32.64264762	     -0.00000000	     16.32132381	     -0.00000000	      0.00000000	      0.00000000	     -0.00000000	     -0.00000000	     -0.00000000	     -0.00000000	      0.00000000	      0.00000000	      0.00000000	     -0.00000000	      0.00000000	      0.00000000	      0.00000000	      0.00000000	      1.40548471	      0.00000000	      5.29230242	     -0.00000000	      2.64615121	      0.01001670	      0.04011816	      0.01001670	      0.07067771	      0.01001670	      0.06807068	      0.01001670	      0.07363685	      0.01001670	      0.04234712	      0.01001670	      0.02748771	      0.01001670	      0.01961124
      0.74697332	     -4.84001085	      2.05000016	     -2.05000016	      4.84001085	     -0.98000374	      7.92004553	      3.56000596	     -3.56000596	     -7.92004553	      0.98000374	    -50.00000000	     20.00000000	     50.00000000	     20.00000000	     90.00021046	     56.46475891	      0.00000000	     32.65416712	     -0.00000000	     16.32708356	     -0.00000000	      0.00000000	      0.00000000	     -0.00000000	     -0.00000000	     -0.00000000	     -0.00000000	      0.00000000	      0.00000000	      0.00000000	     -0.00000000	      0.00000000	      0.00000000	      0.00000000	      0.00000000	      1.40801540	      0.00000000	      5.24316407	     -0.00000000	      2.62158203	      0.01001632	      0.04011849	      0.01001632	      0.07067987	      0.01001632	      0.06807293	      0.01001632	      0.07363786	      0.01001632	      0.04234398	      0.01001632	      0.02748473	      0.01001632	      0.01961100
      0.74916009	     -4.84001085	      2.05000016	     -2.05000016	      4.84001085	     -0.98000374	      7.92004553	      3.56000596	     -3.56000596	     -7.92004553	      0.98000374	    -50.00000000	     20.00000000	     50.00000000	     20.00000000	     90.00021046	     56.46783668	      0.00000000	     32.66558004	     -0.00000000	     16.33279002	     -0.00000000	      0.00000000	      0.00000000	     -0.00000000	     -0.00000000	     -0.00000000	     -0.00000000	      0.00000000	      0.00000000	      0.00000000	     -0.00000000	      0.00000000	      0.00000000	      0.00000000	      0.00000000	      1.40546009	      0.00000000	      5.19528396	     -0.00000000	      2.59764198	      0.01001596	      0.04011883	      0.01001596	      0.07068201	      0.01001596	      0.06807517	      0.01001596	      0.07363888	      0.01001596	      0.04234086	      0.01001596	      0.02748178	      0.01001596	      0.01961064
